<?xml version="1.0" encoding="UTF-8" standalone="no"?>
<svg width="220" height="60" viewBox="0 0 220 60" fill="none" xmlns="http://www.w3.org/2000/svg">
  <!-- R Icon -->
  <path d="M106 10 L118 10 C125 10 130 15 130 22 C130 29 125 34 118 34 L113 34 L113 46 L106 46 L106 10 Z" stroke="white" stroke-width="3" fill="none"/>
  <path d="M113 28 L118 28 C120.5 28 123 26 123 22 C123 18 120.5 16 118 16 L113 16 L113 28 Z" stroke="white" stroke-width="3" fill="none"/>
  
  <!-- sahara text -->
  <path d="M28 45.5C26.4 45.5 25 45.2 23.8 44.6C22.6 44 21.7 43.2 21.1 42.2C20.5 41.2 20.2 40 20.2 38.7H23.8C23.9 39.8 24.3 40.7 25 41.3C25.7 41.9 26.7 42.2 28 42.2C29.3 42.2 30.3 41.9 31 41.3C31.7 40.7 32.1 39.9 32.1 38.9C32.1 38.1 31.9 37.4 31.4 36.9C30.9 36.4 30.4 36 29.7 35.7C29 35.4 28 35.1 26.6 34.7C24.9 34.2 23.5 33.7 22.5 33.2C21.5 32.7 20.6 32 19.9 31.1C19.2 30.2 18.9 29 18.9 27.5C18.9 26.2 19.2 25 19.9 24C20.6 23 21.5 22.2 22.7 21.6C23.9 21 25.3 20.7 26.8 20.7C29.1 20.7 31 21.3 32.4 22.5C33.8 23.7 34.6 25.4 34.7 27.6H31C30.9 26.6 30.5 25.8 29.8 25.2C29.1 24.6 28.1 24.3 26.9 24.3C25.8 24.3 24.9 24.6 24.2 25.1C23.5 25.6 23.2 26.4 23.2 27.4C23.2 28.1 23.4 28.7 23.8 29.2C24.2 29.7 24.8 30.1 25.4 30.4C26.1 30.7 27 31 28.4 31.4C30.1 31.9 31.5 32.4 32.5 32.9C33.5 33.4 34.4 34.1 35.1 35C35.8 35.9 36.2 37.1 36.2 38.6C36.2 39.8 35.9 40.9 35.1 42C34.4 43 33.4 43.8 32.2 44.4C31 45 29.6 45.3 28 45.5Z" fill="white"/>
  <path d="M46.8 45.5C45 45.5 43.4 45.1 42.1 44.3C40.8 43.5 39.8 42.4 39.1 41C38.4 39.6 38 38 38 36.2C38 34.4 38.4 32.9 39.1 31.5C39.8 30.1 40.8 29 42 28.2C43.3 27.4 44.8 27 46.5 27C47.7 27 48.8 27.2 49.8 27.6C50.8 28 51.7 28.5 52.4 29.3C53.1 30.1 53.7 31.1 54 32.2C54.3 33.3 54.5 34.6 54.4 36H42.2C42.3 37.4 42.8 38.5 43.7 39.4C44.6 40.3 45.8 40.7 47.2 40.7C48.2 40.7 49.1 40.5 49.7 40C50.4 39.5 50.9 38.9 51.2 38.2H54.3C53.9 39.7 53 41 51.7 42C50.3 44.3 48 45.5 46.8 45.5ZM51.1 33.4C51 32.6 50.7 31.9 50.3 31.3C49.9 30.7 49.3 30.3 48.6 30C47.9 29.7 47.2 29.5 46.4 29.5C45.1 29.5 44 29.9 43.2 30.8C42.4 31.7 41.9 32.4 41.8 33.4H51.1Z" fill="white"/>
  <path d="M65.8 45.5C64 45.5 62.4 45.1 61.1 44.3C59.8 43.5 58.8 42.4 58.1 41C57.4 39.6 57 38 57 36.2C57 34.4 57.4 32.9 58.1 31.5C58.8 30.1 59.8 29 61 28.2C62.3 27.4 63.8 27 65.5 27C66.7 27 67.8 27.2 68.8 27.6C69.8 28 70.7 28.5 71.4 29.3C72.1 30.1 72.7 31.1 73 32.2C73.3 33.3 73.5 34.6 73.4 36H61.2C61.3 37.4 61.8 38.5 62.7 39.4C63.6 40.3 64.8 40.7 66.2 40.7C67.2 40.7 68.1 40.5 68.7 40C69.4 39.5 69.9 38.9 70.2 38.2H73.3C72.9 39.7 72 41 70.7 42C69.3 44.3 67 45.5 65.8 45.5ZM70.1 33.4C70 32.6 69.7 31.9 69.3 31.3C68.9 30.7 68.3 30.3 67.6 30C66.9 29.7 66.2 29.5 65.4 29.5C64.1 29.5 63 29.9 62.2 30.8C61.4 31.7 60.9 32.4 60.8 33.4H70.1Z" fill="white"/>
  <path d="M80.5 45H76.8V27.4H80.2V30.2C80.8 29.2 81.5 28.4 82.5 27.9C83.5 27.4 84.5 27.1 85.7 27.1C88.9 27.1 90.8 28.9 91.3 32.6C91.9 30.8 92.7 29.5 93.8 28.7C94.9 27.9 96.1 27.5 97.5 27.5C99.4 27.5 100.9 28.1 101.9 29.2C102.9 30.3 103.4 32 103.4 34.3V45H99.7V34.8C99.7 33.3 99.4 32.2 98.9 31.4C98.3 30.7 97.5 30.3 96.4 30.3C95 30.3 93.9 30.9 93.1 32C92.3 33.1 91.9 34.7 91.9 36.6V45H88.2V34.5C88.2 33.2 87.9 32.1 87.4 31.4C86.8 30.7 86 30.3 85 30.3C84.1 30.3 83.3 30.6 82.6 31.1C81.9 31.6 81.3 32.3 80.9 33.3C80.5 34.3 80.3 35.5 80.3 36.8L80.5 45Z" fill="white"/>
  <path d="M114.9 45.5C113.1 45.5 111.5 45.1 110.2 44.3C108.9 43.5 107.9 42.4 107.2 41C106.5 39.6 106.1 38 106.1 36.2C106.1 34.4 106.5 32.9 107.2 31.5C107.9 30.1 108.9 29 110.1 28.2C111.4 27.4 112.9 27 114.6 27C115.8 27 116.9 27.2 117.9 27.6C118.9 28 119.8 28.5 120.5 29.3C121.2 30.1 121.8 31.1 122.1 32.2C122.4 33.3 122.6 34.6 122.5 36H110.3C110.4 37.4 110.9 38.5 111.8 39.4C112.7 40.3 113.9 40.7 115.3 40.7C116.3 40.7 117.2 40.5 117.8 40C118.5 39.5 119 38.9 119.3 38.2H122.4C122 39.7 121.1 41 119.8 42C118.4 44.3 116.1 45.5 114.9 45.5ZM119.2 33.4C119.1 32.6 118.8 31.9 118.4 31.3C118 30.7 117.4 30.3 116.7 30C116 29.7 115.3 29.5 114.5 29.5C113.2 29.5 112.1 29.9 111.3 30.8C110.5 31.7 110 32.4 109.9 33.4H119.2Z" fill="white"/>
  
  <!-- Real Tech text -->
  <path d="M139.7 58.2H137.5V45.6H142.5C143.9 45.6 145 46 145.8 46.7C146.6 47.4 147 48.4 147 49.7C147 50.7 146.8 51.5 146.3 52.1C145.8 52.7 145.2 53.1 144.4 53.4L147.7 58.2H145.2L142.2 53.7H139.7V58.2ZM139.7 51.9H142.5C143.3 51.9 143.9 51.7 144.3 51.3C144.7 50.9 145 50.3 145 49.7C145 49 144.8 48.5 144.3 48.1C143.8 47.7 143.2 47.5 142.4 47.5H139.7V51.9Z" fill="white"/>
  <path d="M158.2 56.4H151.9L150.9 58.3H148.6L154.4 45.6H155.9L161.6 58.3H159.2L158.2 56.4ZM157.4 54.6L155.1 49.4L152.7 54.6H157.4Z" fill="white"/>
  <path d="M173.5 58.3H171.3V47.5H167V45.6H177.8V47.5H173.5V58.3Z" fill="white"/>
  <path d="M188.1 56.4H181.8L180.8 58.3H178.5L184.3 45.6H185.8L191.5 58.3H189.1L188.1 56.4ZM187.3 54.6L185 49.4L182.6 54.6H187.3Z" fill="white"/>
  <path d="M203.1 58.3H193.5V45.6H203.1V47.5H195.7V50.9H202.4V52.8H195.7V56.4H203.1V58.3Z" fill="white"/>
  <path d="M214.7 58.3C214.6 58.1 214.5 57.8 214.4 57.3C213.5 58 212.5 58.4 211.2 58.4C210 58.4 209 58.1 208.3 57.5C207.6 56.9 207.2 56.1 207.2 55.1C207.2 53.9 207.7 53 208.7 52.4C209.7 51.8 211.1 51.5 213 51.5H214.3V50.9C214.3 50.4 214.1 50 213.8 49.7C213.5 49.4 213 49.2 212.3 49.2C211.7 49.2 211.2 49.3 210.9 49.6C210.6 49.9 210.4 50.2 210.4 50.7H208.3C208.3 50.1 208.5 49.5 208.9 49C209.3 48.5 209.8 48.1 210.5 47.8C211.2 47.5 212 47.4 212.8 47.4C214.1 47.4 215.2 47.7 216 48.4C216.8 49 217.2 50 217.2 51.2V55.8C217.2 56.8 217.3 57.6 217.6 58.2V58.3H214.7ZM211.7 56.6C212.2 56.6 212.7 56.5 213.1 56.3C213.6 56.1 213.9 55.8 214.1 55.5V53H213C211.7 53 210.8 53.2 210.3 53.5C209.8 53.8 209.6 54.3 209.6 54.9C209.6 55.4 209.8 55.8 210.1 56.1C210.4 56.4 210.9 56.6 211.7 56.6Z" fill="white"/>
  <path d="M224.6 47.6L224.7 48.7C225.5 47.8 226.6 47.4 228 47.4C229.6 47.4 230.7 48 231.2 49.2C231.6 48.6 232.1 48.1 232.8 47.8C233.4 47.5 234.2 47.4 235.1 47.4C237.6 47.4 238.9 48.8 239 51.5V58.3H236.1V51.6C236.1 50.9 236 50.3 235.7 50C235.4 49.7 234.8 49.5 234 49.5C233.3 49.5 232.8 49.7 232.4 50C232 50.3 231.8 50.8 231.7 51.4V58.3H228.8V51.6C228.8 50.8 228.7 50.3 228.4 50C228.1 49.7 227.6 49.5 226.8 49.5C225.9 49.5 225.2 49.9 224.8 50.6V58.3H221.9V47.6H224.6Z" fill="white"/>
</svg>