<svg xmlns="http://www.w3.org/2000/svg" viewBox="0 0 120 40" fill="#F3BA2F">
  <path d="M20 15l5 5-5 5-5-5 5-5zm0-5l-10 10 10 10 10-10L20 10zm-10 10l-5 5 5 5 5-5-5-5zm20 0l-5 5 5 5 5-5-5-5z"/>
  <path d="M45 20c0 4.4-3.6 8-8 8s-8-3.6-8-8 3.6-8 8-8 8 3.6 8 8zm10 0c0-1.7 1.3-3 3-3s3 1.3 3 3-1.3 3-3 3-3-1.3-3-3zm12 0c0-1.7 1.3-3 3-3s3 1.3 3 3-1.3 3-3 3-3-1.3-3-3zm12 0c0-1.7 1.3-3 3-3s3 1.3 3 3-1.3 3-3 3-3-1.3-3-3zm12 0c0-1.7 1.3-3 3-3s3 1.3 3 3-1.3 3-3 3-3-1.3-3-3z"/>
  <text x="45" y="24" font-family="Arial" font-size="12" fill="#F3BA2F">Binance</text>
</svg>